<svg xmlns="http://www.w3.org/2000/svg" viewBox="0 0 43.2002 43.2002"><defs><style>.cls-1{fill:#0190b0;}.cls-2{fill:#00a5cb;}.cls-3{fill:#fff;}</style></defs><title>Element 2</title><g id="Ebene_2" data-name="Ebene 2"><g id="Layer_1" data-name="Layer 1"><circle class="cls-1" cx="21.6001" cy="21.6001" r="21.6001"/><path class="cls-2" d="M21.6362,43.2a21.6,21.6,0,0,1,0-43.2"/><path class="cls-3" d="M35.2314,19.88a1.7159,1.7159,0,0,0-1.6972,1.4912H29.7881a8.1619,8.1619,0,0,0-2.2363-5.3994l2.6494-2.6494A1.7174,1.7174,0,1,0,29.877,13l-2.6485,2.6489a8.16,8.16,0,0,0-5.4-2.2358V9.6655a1.72,1.72,0,1,0-.457,0v3.7471a8.1595,8.1595,0,0,0-5.3994,2.2363L13.3228,13A1.7186,1.7186,0,1,0,13,13.3232l2.6489,2.649a8.1639,8.1639,0,0,0-2.2358,5.3994H9.666a1.719,1.719,0,1,0,0,.4575h3.7466a8.1631,8.1631,0,0,0,2.2363,5.3994L13,29.877a1.7213,1.7213,0,1,0,.3237.3242l2.649-2.6494a8.1619,8.1619,0,0,0,5.3994,2.2363v3.7461a1.72,1.72,0,1,0,.457,0V29.7881a8.1634,8.1634,0,0,0,5.4-2.2363l2.6485,2.6494a1.72,1.72,0,1,0,.3242-.3242l-2.6494-2.6485a8.1631,8.1631,0,0,0,2.2363-5.3994h3.7461A1.7164,1.7164,0,1,0,35.2314,19.88Z"/></g></g></svg>