<svg id="Layer_1" data-name="Layer 1" xmlns="http://www.w3.org/2000/svg" width="0.5977in" height="0.5977in" viewBox="0 0 43.0328 43.0328"><defs><style>.cls-1{fill:#0190b0;}</style></defs><title>Artboard 1</title><path class="cls-1" d="M43.1164,21.8771a21.6,21.6,0,1,1-21.6-21.6A21.6,21.6,0,0,1,43.1164,21.8771ZM21.5523.2771a21.6,21.6,0,0,0,0,43.2m13.5951-23.32a1.7144,1.7144,0,0,0-1.6966,1.491H29.7041a8.1608,8.1608,0,0,0-2.2362-5.3995L30.117,13.6a1.72,1.72,0,1,0-.3234-.3235l-2.6491,2.6492a8.1608,8.1608,0,0,0-5.3995-2.2362V9.9427a1.72,1.72,0,1,0-.4573,0v3.7467a8.1613,8.1613,0,0,0-5.3994,2.2362l-2.6491-2.6491a1.72,1.72,0,1,0-.3235.3234l2.6491,2.6492a8.161,8.161,0,0,0-2.2361,5.3994H9.582a1.72,1.72,0,1,0,0,.4573h3.7467a8.1606,8.1606,0,0,0,2.2362,5.3993l-2.6491,2.6492a1.72,1.72,0,1,0,.3234.3234l2.6491-2.6491a8.1615,8.1615,0,0,0,5.3994,2.2362v3.7467a1.72,1.72,0,1,0,.4573,0V30.0648a8.161,8.161,0,0,0,5.3994-2.2361l2.6491,2.6491a1.72,1.72,0,1,0,.3235-.3235l-2.6491-2.6491a8.1613,8.1613,0,0,0,2.2362-5.3994h3.7467a1.716,1.716,0,1,0,1.6966-1.9483Z"/></svg>